# xmcd
#
# Track frame offsets: 
#        150
#        10948
#        23801
#        34014
#        48033
#        61247
#        73733
#        86711
#        100829
#        114902
#        131406
#        144925
#        163226
#
# Disc length: 2349 seconds
#
# Revision: 1
# Processed by: cddbd v1.5.2PL0 Copyright (c) Steve Scherf et al.
# Submitted via: ExactAudioCopy v0.95b4
#
DISCID=a2092b0d
DTITLE=Larry Stephenson - 20th Anniversary
DYEAR=2009
DGENRE=Bluegrass
TTITLE0=Teardrop Town - Featuring David Parmley
TTITLE1=Talk To Me Lonesome Heart - Featuring Connie Smith and Marty Stu
TTITLE1=art
TTITLE2=My Old Kentucky Home - Featuring Ricky Skaggs
TTITLE3=Shelly's Winter Love - Featuring Ronnie Reno
TTITLE4=Me And My Old Banjo - Featuring Sonny Osborn and Ronnie Reno
TTITLE5=The Bluebirds Singing For Me - Featuring Dudley Connell
TTITLE6=Give This Message To Your Heart - Featuring Dailey and Vincent
TTITLE7=Have You Come To Say Goodbye - Featuring Del McCoury
TTITLE8=This Heart Of Mine Can Never Say Goodbye - Featuring Dale Ann 
TTITLE8=Bradley and David Parmley
TTITLE9=Traveling Kind
TTITLE10=You'll See Jesus
TTITLE11=Mule Skinner Blues
TTITLE12=Talk To Me Lonesome Heart - Featuring Connie Smith and Marty St
TTITLE12=uart
EXTD=
EXTT0=
EXTT1=
EXTT2=
EXTT3=
EXTT4=
EXTT5=
EXTT6=
EXTT7=
EXTT8=
EXTT9=
EXTT10=
EXTT11=
EXTT12=
PLAYORDER=
